<?xml version="1.0" encoding="UTF-8"?>
<svg id="a" data-name="Layer 1" xmlns="http://www.w3.org/2000/svg" viewBox="0 0 400 400">
  <defs>
    <style>
      .b {
        fill: none;
        stroke: #fff;
        stroke-linecap: round;
        stroke-linejoin: round;
        stroke-width: 5px;
      }

      .c {
        fill: #fff;
        stroke-width: 0px;
      }
    </style>
  </defs>
  <polyline class="b" points="68.3 196.26 133.98 130.57 199.84 196.42 265.52 130.73 331.21 130.5"/>
  <polyline class="b" points="68.3 262.27 134.15 328.12 199.84 262.44 265.52 196.75 331.21 262.44"/>
  <g>
    <path class="c" d="M68.46,202.13c-3.15,0-5.71-2.56-5.71-5.71s2.56-5.71,5.71-5.71,5.71,2.56,5.71,5.71-2.56,5.71-5.71,5.71Z"/>
    <path class="c" d="M68.46,193.21c1.77,0,3.21,1.44,3.21,3.21s-1.44,3.21-3.21,3.21-3.21-1.44-3.21-3.21,1.44-3.21,3.21-3.21M68.46,188.21c-4.53,0-8.21,3.68-8.21,8.21s3.68,8.21,8.21,8.21,8.21-3.68,8.21-8.21-3.68-8.21-8.21-8.21h0Z"/>
  </g>
  <g>
    <circle class="c" cx="133.82" cy="131.06" r="5.71"/>
    <path class="c" d="M133.82,127.85c1.77,0,3.21,1.44,3.21,3.21s-1.44,3.21-3.21,3.21-3.21-1.44-3.21-3.21,1.44-3.21,3.21-3.21M133.82,122.85c-4.53,0-8.21,3.68-8.21,8.21s3.68,8.21,8.21,8.21,8.21-3.68,8.21-8.21-3.68-8.21-8.21-8.21h0Z"/>
  </g>
  <g>
    <path class="c" d="M199.84,202.13c-3.15,0-5.71-2.56-5.71-5.71s2.56-5.71,5.71-5.71,5.71,2.56,5.71,5.71-2.56,5.71-5.71,5.71Z"/>
    <path class="c" d="M199.84,193.21c1.77,0,3.21,1.44,3.21,3.21s-1.44,3.21-3.21,3.21-3.21-1.44-3.21-3.21,1.44-3.21,3.21-3.21M199.84,188.21c-4.53,0-8.21,3.68-8.21,8.21s3.68,8.21,8.21,8.21,8.21-3.68,8.21-8.21-3.68-8.21-8.21-8.21h0Z"/>
  </g>
  <g>
    <circle class="c" cx="264.7" cy="131.56" r="5.71"/>
    <path class="c" d="M264.7,128.34c1.77,0,3.21,1.44,3.21,3.21s-1.44,3.21-3.21,3.21-3.21-1.44-3.21-3.21,1.44-3.21,3.21-3.21M264.7,123.34c-4.53,0-8.21,3.68-8.21,8.21s3.68,8.21,8.21,8.21,8.21-3.68,8.21-8.21-3.68-8.21-8.21-8.21h0Z"/>
  </g>
  <g>
    <circle class="c" cx="68.46" cy="261.78" r="5.71"/>
    <path class="c" d="M68.46,258.57c1.77,0,3.21,1.44,3.21,3.21s-1.44,3.21-3.21,3.21-3.21-1.44-3.21-3.21,1.44-3.21,3.21-3.21M68.46,253.57c-4.53,0-8.21,3.68-8.21,8.21s3.68,8.21,8.21,8.21,8.21-3.68,8.21-8.21-3.68-8.21-8.21-8.21h0Z"/>
  </g>
  <g>
    <circle class="c" cx="133.82" cy="328.12" r="5.71"/>
    <path class="c" d="M133.82,324.91c1.77,0,3.21,1.44,3.21,3.21s-1.44,3.21-3.21,3.21-3.21-1.44-3.21-3.21,1.44-3.21,3.21-3.21M133.82,319.91c-4.53,0-8.21,3.68-8.21,8.21s3.68,8.21,8.21,8.21,8.21-3.68,8.21-8.21-3.68-8.21-8.21-8.21h0Z"/>
  </g>
  <g>
    <circle class="c" cx="199.84" cy="261.78" r="5.71"/>
    <path class="c" d="M199.84,258.57c1.77,0,3.21,1.44,3.21,3.21s-1.44,3.21-3.21,3.21-3.21-1.44-3.21-3.21,1.44-3.21,3.21-3.21M199.84,253.57c-4.53,0-8.21,3.68-8.21,8.21s3.68,8.21,8.21,8.21,8.21-3.68,8.21-8.21-3.68-8.21-8.21-8.21h0Z"/>
  </g>
  <g>
    <circle class="c" cx="264.7" cy="196.91" r="5.71"/>
    <path class="c" d="M264.7,193.7c1.77,0,3.21,1.44,3.21,3.21s-1.44,3.21-3.21,3.21-3.21-1.44-3.21-3.21,1.44-3.21,3.21-3.21M264.7,188.7c-4.53,0-8.21,3.68-8.21,8.21s3.68,8.21,8.21,8.21,8.21-3.68,8.21-8.21-3.68-8.21-8.21-8.21h0Z"/>
  </g>
  <g>
    <circle class="c" cx="331.38" cy="131.21" r="5.71"/>
    <path class="c" d="M331.37,128c1.77,0,3.21,1.44,3.21,3.21s-1.44,3.21-3.21,3.21-3.21-1.44-3.21-3.21,1.44-3.21,3.21-3.21M331.37,123c-4.53,0-8.21,3.68-8.21,8.21s3.68,8.21,8.21,8.21,8.21-3.68,8.21-8.21-3.68-8.21-8.21-8.21h0Z"/>
  </g>
  <g>
    <circle class="c" cx="331.54" cy="262.44" r="5.71"/>
    <path class="c" d="M331.54,259.23c1.77,0,3.21,1.44,3.21,3.21s-1.44,3.21-3.21,3.21-3.21-1.44-3.21-3.21,1.44-3.21,3.21-3.21M331.54,254.23c-4.53,0-8.21,3.68-8.21,8.21s3.68,8.21,8.21,8.21,8.21-3.68,8.21-8.21-3.68-8.21-8.21-8.21h0Z"/>
  </g>
</svg>