<?xml version="1.0" encoding="UTF-8"?>
<svg id="a" data-name="Layer 1" xmlns="http://www.w3.org/2000/svg" viewBox="0 0 400 400">
  <defs>
    <style>
      .b {
        fill: #fff;
      }

      .b, .c {
        stroke: #fff;
      }

      .c {
        fill: none;
        stroke-linecap: round;
        stroke-linejoin: round;
        stroke-width: 5px;
      }
    </style>
  </defs>
  <rect class="c" x="90.16" y="86.05" width="93.68" height="93.68"/>
  <path class="b" d="M116.89,154.04l16.49-42.95h6.12l17.58,42.95h-6.47l-5.01-13.01h-17.96l-4.72,13.01h-6.04ZM129.28,136.41h14.56l-4.48-11.89c-1.37-3.61-2.38-6.58-3.05-8.91-.55,2.75-1.32,5.49-2.31,8.2l-4.72,12.6Z"/>
  <rect class="c" x="216.16" y="86.05" width="93.68" height="93.68"/>
  <path class="b" d="M245.72,154.04v-42.95h16.11c3.28,0,5.91.43,7.9,1.3,1.98.87,3.54,2.21,4.66,4.01,1.12,1.81,1.68,3.7,1.68,5.67,0,1.84-.5,3.56-1.49,5.19s-2.5,2.93-4.51,3.93c2.6.76,4.59,2.06,5.99,3.9s2.09,4,2.09,6.5c0,2.01-.42,3.88-1.27,5.61s-1.9,3.06-3.15,4-2.82,1.64-4.7,2.12c-1.88.48-4.19.72-6.93.72h-16.38ZM251.4,129.14h9.29c2.52,0,4.33-.17,5.42-.5,1.45-.43,2.53-1.14,3.27-2.14s1.1-2.25,1.1-3.75c0-1.43-.34-2.68-1.03-3.77s-1.66-1.83-2.93-2.23c-1.27-.4-3.45-.6-6.53-.6h-8.58v12.98ZM251.4,148.97h10.69c1.84,0,3.12-.07,3.87-.21,1.31-.23,2.4-.62,3.28-1.17s1.6-1.34,2.17-2.39c.57-1.04.85-2.25.85-3.62,0-1.6-.41-2.99-1.23-4.18-.82-1.18-1.96-2.01-3.41-2.49-1.46-.48-3.55-.72-6.28-.72h-9.93v14.77Z"/>
  <rect class="c" x="90.16" y="214.05" width="93.68" height="93.68"/>
  <path class="b" d="M148.94,266.98l5.68,1.44c-1.19,4.67-3.33,8.23-6.43,10.68-3.1,2.45-6.88,3.68-11.35,3.68s-8.39-.94-11.29-2.83c-2.9-1.88-5.11-4.61-6.62-8.19s-2.27-7.41-2.27-11.51c0-4.47.85-8.38,2.56-11.71,1.71-3.33,4.14-5.86,7.29-7.59s6.63-2.59,10.42-2.59c4.3,0,7.91,1.09,10.84,3.28s4.97,5.26,6.12,9.23l-5.6,1.32c-1-3.12-2.44-5.4-4.34-6.83s-4.28-2.14-7.15-2.14c-3.3,0-6.06.79-8.28,2.37s-3.77,3.71-4.67,6.37-1.35,5.42-1.35,8.25c0,3.65.53,6.84,1.6,9.56s2.72,4.76,4.97,6.11,4.68,2.02,7.29,2.02c3.18,0,5.88-.92,8.09-2.75s3.7-4.56,4.48-8.17Z"/>
  <rect class="c" x="216.16" y="214.05" width="93.68" height="93.68"/>
  <path class="b" d="M244.3,282.04v-42.95h14.79c3.34,0,5.89.21,7.65.62,2.46.57,4.56,1.59,6.3,3.08,2.27,1.91,3.96,4.36,5.08,7.34,1.12,2.98,1.68,6.38,1.68,10.21,0,3.26-.38,6.15-1.14,8.67s-1.74,4.6-2.93,6.25c-1.19,1.65-2.5,2.95-3.91,3.9-1.42.95-3.12,1.67-5.13,2.15s-4.3.73-6.9.73h-15.5ZM249.98,276.97h9.17c2.83,0,5.05-.26,6.67-.79s2.9-1.27,3.85-2.23c1.35-1.35,2.4-3.16,3.15-5.44.75-2.27,1.13-5.03,1.13-8.28,0-4.49-.74-7.94-2.21-10.36-1.47-2.41-3.27-4.03-5.38-4.85-1.52-.59-3.97-.88-7.35-.88h-9.02v32.81Z"/>
</svg>