<?xml version="1.0" encoding="UTF-8"?>
<svg id="a" data-name="Layer 1" xmlns="http://www.w3.org/2000/svg" viewBox="0 0 400 400">
  <defs>
    <style>
      .b {
        stroke-linecap: round;
        stroke-linejoin: round;
      }

      .b, .c {
        fill: none;
        stroke: #fff;
        stroke-width: 5px;
      }
    </style>
  </defs>
  <rect class="b" x="90" y="90" width="220" height="220"/>
  <path class="c" d="M196.35,268.83v-13.68c-6.84-.86-12.4-2.39-16.68-4.6s-7.98-5.76-11.09-10.67c-3.11-4.91-4.93-10.92-5.43-18.01l13.75-2.58c1.06,7.34,2.94,12.74,5.62,16.18,3.85,4.86,8.46,7.57,13.83,8.13v-43.53c-5.62-1.06-11.37-3.24-17.25-6.53-4.36-2.43-7.71-5.8-10.07-10.1s-3.53-9.19-3.53-14.66c0-9.72,3.44-17.6,10.33-23.63,4.61-4.05,11.45-6.53,20.51-7.45v-6.53h8.05v6.53c7.95.76,14.26,3.09,18.92,6.99,5.98,4.96,9.57,11.78,10.79,20.44l-14.13,2.13c-.81-5.37-2.49-9.48-5.05-12.35s-6.07-4.75-10.52-5.66v39.43c6.89,1.72,11.45,3.06,13.68,4.03,4.25,1.87,7.72,4.15,10.41,6.84s4.75,5.88,6.19,9.57c1.44,3.7,2.17,7.7,2.17,12,0,9.47-3.01,17.37-9.04,23.7s-13.83,9.72-23.4,10.18v13.83h-8.05ZM196.35,149.1c-5.32.81-9.51,2.94-12.57,6.38-3.06,3.44-4.6,7.52-4.6,12.23s1.3,8.56,3.91,11.7,7.03,5.65,13.26,7.52v-37.84ZM204.41,243.61c5.32-.66,9.71-2.96,13.18-6.91s5.2-8.84,5.2-14.66c0-4.96-1.23-8.95-3.68-11.97s-7.36-5.71-14.7-8.09v41.63Z"/>
</svg>